<svg width="22" height="25" viewBox="0 0 22 25" fill="none" xmlns="http://www.w3.org/2000/svg">
<rect y="6" width="4" height="2" rx="1" fill="#8E4C40"/>
<rect x="18" y="6" width="4" height="2" rx="1" fill="#8E4C40"/>
<path d="M2 7.5C2.16667 10.6667 3.7 17.1 10.5 17.5C17.3 17.9 20 12 20 7.5" stroke="#8E4C40"/>
<path d="M9.5 22.5V17.5H11.5V22.5M9.5 22.5H6.5C6.16667 22.6667 5.5 23.3 5.5 24.5H16.5C16.5 23.8333 16.3 22.5 15.5 22.5H11.5M9.5 22.5H11.5" stroke="#8E4C40"/>
<path d="M18.5 8.5C18.5 12.9473 15.114 16.5 11 16.5C6.88599 16.5 3.5 12.9473 3.5 8.5C3.5 4.05273 6.88599 0.5 11 0.5C15.114 0.5 18.5 4.05273 18.5 8.5Z" stroke="#8E4C40"/>
</svg>
