<svg width="25" height="31" viewBox="0 0 25 31" fill="none" xmlns="http://www.w3.org/2000/svg">
<path d="M14.5 19.5V28.5C16.1667 29.3333 20.5 30.5 24.5 28.5V19.5M14.5 19.5H24.5M14.5 19.5V17.5M24.5 19.5V17.5M24.5 17.5V14.5H14.5V16V17.5M24.5 17.5H14.5" stroke="#8E4C40"/>
<path d="M2 14.5H1V28C5 30.4 9.33333 29 11 28V14.5H10M2 14.5V10.5H3.5M2 14.5H10M10 14.5V10.5H9M3.5 10.5H9M3.5 10.5V7M9 1.49997C5.8 1.09997 4 3.33331 3.5 4.49997V7M9 1.49997V10.5M9 1.49997C8.6 4.29995 5.16667 6.33332 3.5 7" stroke="#8E4C40"/>
</svg>
