<svg width="31" height="23" viewBox="0 0 31 23" fill="none" xmlns="http://www.w3.org/2000/svg">
<path d="M21 23V19C21 20.6 23.3333 22.3333 24.5 23H21Z" fill="#825348"/>
<path d="M22.0182 16C19.6182 13.6 22.0182 11 23.5182 10C23.0181 14 25.0182 13.5 29.0182 17C32.2182 19.8 28.6849 22.1667 26.5182 23C29.5182 19.5 25.0182 19 22.0182 16Z" fill="#805146"/>
<path d="M16.7201 0.423439V8.42344C14.3201 0.423423 9.72011 0.423433 7.72009 1.42344C-1.27994 6.42342 3.72009 14.9235 6.72009 16.9235C9.12009 18.5235 12.3868 16.9235 13.7201 15.9235C16.6467 12.7823 23.4 6.6 27 7C30 7 31.5 9.5 30.5 11.5C29.5 13.5 26.5 13 27 11C27.3333 10.6667 27.8 9.6 27 8C26.2 6.4 20.8134 10.2823 18.2201 12.4235L14.2201 16.4235C14.0534 16.9235 12.7201 18.0235 8.72012 18.4235C3.72012 18.9235 -3.27988 10.9234 1.72012 3.92344C5.72012 -1.67656 12.3868 -0.0765601 15.2201 1.42344L16.7201 0.423439Z" fill="#805146"/>
<path d="M15 12L18 9V20C18 20.8 18.6667 21.6667 19 22H13C14.2 21.6 14.5 20.5 14.5 20V14C14.5 13.2 14.5 13 15 12Z" fill="#805146"/>
<circle cx="28.5" cy="10.5" r="2.5" fill="#805146"/>
</svg>
