<svg width="145" height="107" viewBox="0 0 145 107" fill="none" xmlns="http://www.w3.org/2000/svg">
<path d="M97.6957 107V88.3913C97.6957 95.8348 108.551 103.899 113.978 107H97.6957Z" fill="#FCFCFC"/>
<path d="M102.432 74.4348C91.2671 63.2696 102.432 51.1739 109.411 46.5217C107.084 65.1304 116.389 62.8043 134.998 79.0869C149.885 92.113 133.447 103.123 123.367 107C137.324 90.7174 116.389 88.3913 102.432 74.4348Z" fill="#FCFCFC"/>
<path d="M77.7849 1.96991V39.1873C66.6198 1.96984 45.2197 1.96988 35.9152 6.62209C-5.95449 29.8829 17.3065 69.4265 31.263 78.7309C42.4283 86.1744 57.6254 78.7309 63.8283 74.0787C77.4435 59.4655 108.861 30.7043 125.609 32.5652C139.565 32.5652 146.543 44.1957 141.891 53.5C137.239 62.8043 123.283 60.4783 125.609 51.1739C127.159 49.6232 129.33 44.6609 125.609 37.2174C121.887 29.7739 96.8275 47.8351 84.763 57.7961L66.1543 76.4048C65.379 78.7309 59.1762 83.8483 40.5675 85.7092C17.3067 88.0352 -15.2586 50.8177 8.00231 18.2525C26.611 -7.79965 57.6255 -0.356171 70.8067 6.62209L77.7849 1.96991Z" fill="#FCFCFC"/>
<path d="M69.7826 55.8261L83.7391 41.8696V93.0435C83.7391 96.7652 86.8406 100.797 88.3913 102.348H60.4783C66.0609 100.487 67.4565 95.3696 67.4565 93.0435V65.1304C67.4565 61.4087 67.4565 60.4783 69.7826 55.8261Z" fill="#FCFCFC"/>
<circle cx="132.587" cy="48.8478" r="11.6304" fill="#FCFCFC"/>
</svg>
