<svg width="11" height="11" viewBox="0 0 11 11" fill="none" xmlns="http://www.w3.org/2000/svg">
<path fill-rule="evenodd" clip-rule="evenodd" d="M4.44215 8.88431C6.89549 8.88431 8.88431 6.89549 8.88431 4.44215C8.88431 1.98882 6.89549 0 4.44215 0C1.98882 0 0 1.98882 0 4.44215C0 6.89549 1.98882 8.88431 4.44215 8.88431ZM4.44216 8.08347C6.4532 8.08347 8.08347 6.4532 8.08347 4.44216C8.08347 2.43112 6.4532 0.800843 4.44216 0.800843C2.43112 0.800843 0.800843 2.43112 0.800843 4.44216C0.800843 6.4532 2.43112 8.08347 4.44216 8.08347Z" fill="#C7A49A"/>
<rect x="7.54565" y="7.07019" width="4.62058" height="0.95299" transform="rotate(44.7517 7.54565 7.07019)" fill="#C7A49A"/>
</svg>
