<svg width="210" height="299" viewBox="0 0 210 299" fill="none" xmlns="http://www.w3.org/2000/svg">
<path d="M29.312 246.312C29.12 246.632 28.9067 246.877 28.672 247.048C28.4587 247.197 28.192 247.272 27.872 247.272C27.5093 247.272 27.0827 247.091 26.592 246.728C26.1013 246.365 25.4827 245.971 24.736 245.544C24.0107 245.096 23.1253 244.691 22.08 244.328C21.056 243.965 19.808 243.784 18.336 243.784C16.9493 243.784 15.7227 243.976 14.656 244.36C13.6107 244.723 12.7253 245.224 12 245.864C11.296 246.504 10.7627 247.261 10.4 248.136C10.0373 248.989 9.856 249.917 9.856 250.92C9.856 252.2 10.1653 253.267 10.784 254.12C11.424 254.952 12.256 255.667 13.28 256.264C14.3253 256.861 15.4987 257.384 16.8 257.832C18.1227 258.259 19.4667 258.707 20.832 259.176C22.2187 259.645 23.5627 260.179 24.864 260.776C26.1867 261.352 27.36 262.088 28.384 262.984C29.4293 263.88 30.2613 264.979 30.88 266.28C31.52 267.581 31.84 269.181 31.84 271.08C31.84 273.085 31.4987 274.973 30.816 276.744C30.1333 278.493 29.1307 280.019 27.808 281.32C26.5067 282.621 24.896 283.645 22.976 284.392C21.0773 285.139 18.912 285.512 16.48 285.512C13.4933 285.512 10.784 284.979 8.352 283.912C5.92 282.824 3.84 281.363 2.112 279.528L3.904 276.584C4.07467 276.349 4.27733 276.157 4.512 276.008C4.768 275.837 5.04533 275.752 5.344 275.752C5.62133 275.752 5.93067 275.869 6.272 276.104C6.63467 276.317 7.04 276.595 7.488 276.936C7.936 277.277 8.448 277.651 9.024 278.056C9.6 278.461 10.2507 278.835 10.976 279.176C11.7227 279.517 12.5653 279.805 13.504 280.04C14.4427 280.253 15.4987 280.36 16.672 280.36C18.144 280.36 19.456 280.157 20.608 279.752C21.76 279.347 22.7307 278.781 23.52 278.056C24.3307 277.309 24.9493 276.424 25.376 275.4C25.8027 274.376 26.016 273.235 26.016 271.976C26.016 270.589 25.696 269.459 25.056 268.584C24.4373 267.688 23.616 266.941 22.592 266.344C21.568 265.747 20.3947 265.245 19.072 264.84C17.7493 264.413 16.4053 263.987 15.04 263.56C13.6747 263.112 12.3307 262.6 11.008 262.024C9.68533 261.448 8.512 260.701 7.488 259.784C6.464 258.867 5.632 257.725 4.992 256.36C4.37333 254.973 4.064 253.267 4.064 251.24C4.064 249.619 4.37333 248.051 4.992 246.536C5.632 245.021 6.54933 243.677 7.744 242.504C8.96 241.331 10.4427 240.392 12.192 239.688C13.9627 238.984 15.9893 238.632 18.272 238.632C20.832 238.632 23.1573 239.037 25.248 239.848C27.36 240.659 29.216 241.832 30.816 243.368L29.312 246.312ZM44.4275 256.904C45.8142 255.432 47.3502 254.259 49.0355 253.384C50.7208 252.509 52.6622 252.072 54.8595 252.072C56.6302 252.072 58.1875 252.371 59.5315 252.968C60.8968 253.544 62.0275 254.376 62.9235 255.464C63.8408 256.531 64.5342 257.821 65.0035 259.336C65.4728 260.851 65.7075 262.525 65.7075 264.36V285H59.9795V264.36C59.9795 261.907 59.4142 260.008 58.2835 258.664C57.1742 257.299 55.4782 256.616 53.1955 256.616C51.5102 256.616 49.9315 257.021 48.4595 257.832C47.0088 258.643 45.6648 259.741 44.4275 261.128V285H38.6995V237.864H44.4275V256.904ZM88.051 252.072C90.419 252.072 92.5523 252.467 94.451 253.256C96.3497 254.045 97.971 255.165 99.315 256.616C100.659 258.067 101.683 259.827 102.387 261.896C103.112 263.944 103.475 266.237 103.475 268.776C103.475 271.336 103.112 273.64 102.387 275.688C101.683 277.736 100.659 279.485 99.315 280.936C97.971 282.387 96.3497 283.507 94.451 284.296C92.5523 285.064 90.419 285.448 88.051 285.448C85.6617 285.448 83.507 285.064 81.587 284.296C79.6883 283.507 78.067 282.387 76.723 280.936C75.379 279.485 74.3443 277.736 73.619 275.688C72.915 273.64 72.563 271.336 72.563 268.776C72.563 266.237 72.915 263.944 73.619 261.896C74.3443 259.827 75.379 258.067 76.723 256.616C78.067 255.165 79.6883 254.045 81.587 253.256C83.507 252.467 85.6617 252.072 88.051 252.072ZM88.051 281C91.251 281 93.6403 279.933 95.219 277.8C96.7977 275.645 97.587 272.648 97.587 268.808C97.587 264.947 96.7977 261.939 95.219 259.784C93.6403 257.629 91.251 256.552 88.051 256.552C86.4297 256.552 85.011 256.829 83.795 257.384C82.6003 257.939 81.5977 258.739 80.787 259.784C79.9977 260.829 79.4003 262.12 78.995 263.656C78.611 265.171 78.419 266.888 78.419 268.808C78.419 272.648 79.2083 275.645 80.787 277.8C82.387 279.933 84.8083 281 88.051 281ZM116.428 277.192C117.473 278.6 118.614 279.592 119.852 280.168C121.089 280.744 122.476 281.032 124.012 281.032C127.041 281.032 129.366 279.955 130.988 277.8C132.609 275.645 133.42 272.573 133.42 268.584C133.42 266.472 133.228 264.659 132.844 263.144C132.481 261.629 131.948 260.392 131.244 259.432C130.54 258.451 129.676 257.736 128.652 257.288C127.628 256.84 126.465 256.616 125.164 256.616C123.308 256.616 121.676 257.043 120.268 257.896C118.881 258.749 117.601 259.955 116.428 261.512V277.192ZM116.14 257.608C117.505 255.923 119.084 254.568 120.876 253.544C122.668 252.52 124.716 252.008 127.02 252.008C128.897 252.008 130.593 252.371 132.108 253.096C133.622 253.8 134.913 254.856 135.98 256.264C137.046 257.651 137.868 259.379 138.444 261.448C139.02 263.517 139.308 265.896 139.308 268.584C139.308 270.973 138.988 273.203 138.347 275.272C137.708 277.32 136.78 279.101 135.564 280.616C134.369 282.109 132.897 283.293 131.148 284.168C129.42 285.021 127.468 285.448 125.292 285.448C123.308 285.448 121.601 285.117 120.172 284.456C118.764 283.773 117.516 282.835 116.428 281.64V295.976H110.7V252.584H114.124C114.934 252.584 115.436 252.979 115.628 253.768L116.14 257.608ZM168.271 265.256C168.271 263.933 168.079 262.728 167.695 261.64C167.332 260.531 166.788 259.581 166.063 258.792C165.359 257.981 164.495 257.363 163.471 256.936C162.447 256.488 161.284 256.264 159.983 256.264C157.252 256.264 155.087 257.064 153.487 258.664C151.908 260.243 150.927 262.44 150.543 265.256H168.271ZM172.879 280.456C172.175 281.309 171.332 282.056 170.351 282.696C169.369 283.315 168.313 283.827 167.183 284.232C166.073 284.637 164.921 284.936 163.727 285.128C162.532 285.341 161.348 285.448 160.175 285.448C157.935 285.448 155.865 285.075 153.967 284.328C152.089 283.56 150.457 282.451 149.071 281C147.705 279.528 146.639 277.715 145.871 275.56C145.103 273.405 144.719 270.931 144.719 268.136C144.719 265.875 145.06 263.763 145.743 261.8C146.447 259.837 147.449 258.141 148.751 256.712C150.052 255.261 151.641 254.131 153.519 253.32C155.396 252.488 157.508 252.072 159.855 252.072C161.796 252.072 163.588 252.403 165.231 253.064C166.895 253.704 168.324 254.643 169.519 255.88C170.735 257.096 171.684 258.611 172.367 260.424C173.049 262.216 173.391 264.264 173.391 266.568C173.391 267.464 173.295 268.061 173.103 268.36C172.911 268.659 172.548 268.808 172.015 268.808H150.351C150.415 270.856 150.692 272.637 151.183 274.152C151.695 275.667 152.399 276.936 153.295 277.96C154.191 278.963 155.257 279.72 156.495 280.232C157.732 280.723 159.119 280.968 160.655 280.968C162.084 280.968 163.311 280.808 164.335 280.488C165.38 280.147 166.276 279.784 167.023 279.4C167.769 279.016 168.388 278.664 168.879 278.344C169.391 278.003 169.828 277.832 170.191 277.832C170.66 277.832 171.023 278.013 171.279 278.376L172.879 280.456ZM202.083 265.256C202.083 263.933 201.891 262.728 201.507 261.64C201.144 260.531 200.6 259.581 199.875 258.792C199.171 257.981 198.307 257.363 197.283 256.936C196.259 256.488 195.096 256.264 193.795 256.264C191.064 256.264 188.899 257.064 187.299 258.664C185.72 260.243 184.739 262.44 184.355 265.256H202.083ZM206.691 280.456C205.987 281.309 205.144 282.056 204.163 282.696C203.182 283.315 202.126 283.827 200.995 284.232C199.886 284.637 198.734 284.936 197.539 285.128C196.344 285.341 195.16 285.448 193.987 285.448C191.747 285.448 189.678 285.075 187.779 284.328C185.902 283.56 184.27 282.451 182.883 281C181.518 279.528 180.451 277.715 179.683 275.56C178.915 273.405 178.531 270.931 178.531 268.136C178.531 265.875 178.872 263.763 179.555 261.8C180.259 259.837 181.262 258.141 182.563 256.712C183.864 255.261 185.454 254.131 187.331 253.32C189.208 252.488 191.32 252.072 193.667 252.072C195.608 252.072 197.4 252.403 199.043 253.064C200.707 253.704 202.136 254.643 203.331 255.88C204.547 257.096 205.496 258.611 206.179 260.424C206.862 262.216 207.203 264.264 207.203 266.568C207.203 267.464 207.107 268.061 206.915 268.36C206.723 268.659 206.36 268.808 205.827 268.808H184.163C184.227 270.856 184.504 272.637 184.995 274.152C185.507 275.667 186.211 276.936 187.107 277.96C188.003 278.963 189.07 279.72 190.307 280.232C191.544 280.723 192.931 280.968 194.467 280.968C195.896 280.968 197.123 280.808 198.147 280.488C199.192 280.147 200.088 279.784 200.835 279.4C201.582 279.016 202.2 278.664 202.691 278.344C203.203 278.003 203.64 277.832 204.003 277.832C204.472 277.832 204.835 278.013 205.091 278.376L206.691 280.456Z" fill="#805146"/>
<path d="M144 81.5C144 103.002 138.959 122.126 131.17 135.632C123.274 149.325 113.415 156 104 156C94.585 156 84.7262 149.325 76.8299 135.632C69.041 122.126 64 103.002 64 81.5C64 59.9975 69.041 40.8741 76.8299 27.3678C84.7262 13.6753 94.585 7 104 7C113.415 7 123.274 13.6753 131.17 27.3678C138.959 40.8741 144 59.9975 144 81.5Z" stroke="#805146" stroke-width="14"/>
<path d="M4.80074 71.7433C4.36847 65.9437 8.95741 61 14.7731 61H192.227C198.043 61 202.632 65.9437 202.199 71.7433L192.794 197.933C191.782 211.505 180.475 222 166.866 222H40.1342C26.5245 222 15.2177 211.505 14.2062 197.933L4.80074 71.7433Z" fill="#805146"/>
<path d="M130.72 104.99C130.3 105.783 129.693 106.18 128.9 106.18C128.293 106.18 127.5 105.76 126.52 104.92C125.587 104.033 124.303 103.077 122.67 102.05C121.037 100.977 118.983 99.9967 116.51 99.11C114.083 98.2233 111.073 97.78 107.48 97.78C103.887 97.78 100.713 98.2933 97.96 99.32C95.2533 100.347 92.9667 101.747 91.1 103.52C89.28 105.293 87.88 107.347 86.9 109.68C85.9667 112.013 85.5 114.463 85.5 117.03C85.5 120.39 86.2 123.167 87.6 125.36C89.0467 127.553 90.9367 129.42 93.27 130.96C95.6033 132.5 98.24 133.807 101.18 134.88C104.167 135.907 107.223 136.933 110.35 137.96C113.477 138.987 116.51 140.13 119.45 141.39C122.437 142.603 125.097 144.143 127.43 146.01C129.763 147.877 131.63 150.187 133.03 152.94C134.477 155.647 135.2 159.03 135.2 163.09C135.2 167.243 134.477 171.163 133.03 174.85C131.63 178.49 129.577 181.663 126.87 184.37C124.163 187.077 120.85 189.223 116.93 190.81C113.01 192.35 108.53 193.12 103.49 193.12C96.9567 193.12 91.3333 191.977 86.62 189.69C81.9067 187.357 77.7767 184.183 74.23 180.17L76.19 177.09C76.75 176.39 77.4033 176.04 78.15 176.04C78.57 176.04 79.1067 176.32 79.76 176.88C80.4133 177.44 81.2067 178.14 82.14 178.98C83.0733 179.773 84.1933 180.66 85.5 181.64C86.8067 182.573 88.3233 183.46 90.05 184.3C91.7767 185.093 93.76 185.77 96 186.33C98.24 186.89 100.783 187.17 103.63 187.17C107.55 187.17 111.05 186.587 114.13 185.42C117.21 184.207 119.8 182.573 121.9 180.52C124.047 178.467 125.68 176.04 126.8 173.24C127.92 170.393 128.48 167.36 128.48 164.14C128.48 160.64 127.757 157.77 126.31 155.53C124.91 153.243 123.043 151.353 120.71 149.86C118.377 148.32 115.717 147.037 112.73 146.01C109.79 144.983 106.757 143.98 103.63 143C100.503 142.02 97.4467 140.923 94.46 139.71C91.52 138.497 88.8833 136.957 86.55 135.09C84.2167 133.177 82.3267 130.82 80.88 128.02C79.48 125.173 78.78 121.627 78.78 117.38C78.78 114.067 79.41 110.87 80.67 107.79C81.93 104.71 83.7733 102.003 86.2 99.67C88.6267 97.29 91.6133 95.4 95.16 94C98.7533 92.5533 102.837 91.83 107.41 91.83C112.543 91.83 117.14 92.6467 121.2 94.28C125.307 95.9133 129.04 98.41 132.4 101.77L130.72 104.99Z" fill="white"/>
</svg>
