<svg width="162" height="181" viewBox="0 0 162 181" fill="none" xmlns="http://www.w3.org/2000/svg">
<path d="M3 178V37.5H54.5C61.7 37.5 74.8333 43.1667 80.5 46C90.5 40 103 37.5 109.5 37.5H158.5V135.5C158.5 142 149 178 105.5 178H3Z" stroke="#805146" stroke-width="6"/>
<circle cx="45" cy="95.5" r="35" stroke="#805146" stroke-width="5"/>
<circle cx="116" cy="95.5" r="35" stroke="#805146" stroke-width="5"/>
<path fill-rule="evenodd" clip-rule="evenodd" d="M41.5 93C47.0228 93 51.5 88.5228 51.5 83C51.5 80.2833 50.4167 77.8196 48.6584 76.0174C48.9375 76.0058 49.2181 76 49.5 76C60.5457 76 69.5 84.9543 69.5 96C69.5 107.046 60.5457 116 49.5 116C38.4543 116 29.5 107.046 29.5 96C29.5 92.4569 30.4213 89.129 32.0375 86.2427C33.3844 90.174 37.1122 93 41.5 93Z" fill="#805146"/>
<path fill-rule="evenodd" clip-rule="evenodd" d="M103.5 93C109.023 93 113.5 88.5228 113.5 83C113.5 80.2833 112.417 77.8196 110.658 76.0174C110.938 76.0058 111.218 76 111.5 76C122.546 76 131.5 84.9543 131.5 96C131.5 107.046 122.546 116 111.5 116C100.454 116 91.5 107.046 91.5 96C91.5 92.4569 92.4213 89.129 94.0375 86.2427C95.3844 90.174 99.1122 93 103.5 93Z" fill="#805146"/>
<path d="M61 129L80 147.5L98.5 129C83.7 114.2 67.3333 122.833 61 129Z" stroke="#805146" stroke-width="5"/>
<path d="M46 38C47.3333 27 56.1 5 80.5 5C104.9 5 114 27 115.5 38" stroke="#805146" stroke-width="10"/>
</svg>
